PathFileType	4	(X/Y/Z)	C:/Users/beibeiliu/ov580/test_trc\sequence.18_training_dense_left.trc
DataRate	CameraRate	NumFrames	NumMarkers	Units	OrigDataRate	OrigDataStartFrame	OrigNumFrames
120	120	20	19	mm	120	55	82
Frame#	Time	ThumbCMC			ThumbMCP			ThumbIP			ThumbTip			IndexMCP			IndexPIP			IndexTip			MiddleMCP			MiddlePIP			MiddleTip			RingMCP			RingPIP			RingTip			PinkyMCP			PinkyPIP			PinkyTip			BackHand1			BackHand2			BackHand3	
		X0	Y0	Z0	X1	Y1	Z1	X2	Y2	Z2	X3	Y3	Z3	X4	Y4	Z4	X5	Y5	Z5	X6	Y6	Z6	X7	Y7	Z7	X8	Y8	Z8	X9	Y9	Z9	X10	Y10	Z10	X11	Y11	Z11	X12	Y12	Z12	X13	Y13	Z13	X14	Y14	Z14	X15	Y15	Z15	X16	Y16	Z16	X17	Y17	Z17	X18	Y18	Z18	
54	0.45	-215.249	52.4749	23.1336	-213.404	55.562	-6.0864	-219.343	53.4514	-31.5959	-220.226	42.4795	-49.6229	-261.019	29.766	-13.4095	-255.92	33.5387	-44.3302	-234.67	41.8654	-53.2051	-257.585	10.6148	-19.6606	-250.313	18.8775	-49.1858	-222.252	29.5672	-55.6617	-245.255	-4.3198	-16.1447	-239.24	1.84703	-44.5866	-220.933	17.3164	-49.779	-233.72	-14.5636	-11.4248	-235.225	-9.9066	-33.4036	-224.523	4.5494	-48.1389	-227.252	-1.33776	29.6939	-209.184	3.7436	48.6774	-231.065	28.2597	38.8276	
55	0.458333	-206.001	60.0189	23.569	-203.449	66.8421	-9.1271	-208.182	64.5504	-30.5704	-211.104	60.7774	-54.9257	-255.691	57.6051	-14.0068	-249.201	61.2448	-43.4533	-223.289	62.4215	-52.9729	-258.704	42.1377	-22.4269	-249.667	47.7921	-52.1732	-221.83	45.159	-59.3742	-252.186	24.3941	-18.1176	-242.525	28.6765	-49.4009	-220.331	35.6045	-53.3148	-244.355	5.45876	-15.1977	-244.597	13.473	-35.9828	-224.494	23.0234	-53.6393	-234.493	18.7588	25.8699	-220.479	17.5713	45.0663	-230.307	42.5063	40.4319	
56	0.466667	-196.353	69.2722	22.7723	-188.686	75.4489	-7.961	-191.727	78.0434	-31.6749	-194.769	73.4872	-53.0529	-241.453	85.0227	-17.6599	-231.25	87.8759	-43.4521	-206.778	81.6841	-51.6133	-249.37	68.9104	-26.9434	-236.279	70.0422	-54.5243	-207.701	60.7087	-60.6989	-247.602	48.1477	-22.6867	-235.434	51.7124	-51.9209	-209.779	54.1878	-54.9719	-244.078	29.8298	-16.9799	-242.956	36.8008	-39.6861	-221.906	41.4552	-56.2906	-239.843	33.6835	19.1081	-223.813	25.4987	43.9016	-225.343	59.0754	34.5509	
57	0.475	-183.833	70.5858	25.2485	-175.248	76.4009	-4.84576	-179.423	78.4334	-31.3408	-182.214	75.2767	-51.1989	-220.547	100.777	-22.4487	-209.648	98.0431	-46.288	-184.942	85.8346	-50.7627	-234.126	85.54	-30.0038	-222.701	86.592	-54.8253	-191.708	70.7351	-61.4097	-237.099	68.5828	-30.949	-223.322	70.8451	-54.07	-200.786	65.0252	-57.9579	-238.46	46.5573	-23.7132	-231.551	52.2661	-48.3814	-213.096	54.7932	-60.8104	-231.688	47.3842	16.0172	-221.147	41.5616	39.6799	-216.644	67.5812	34.143	
58	0.483333	-168.375	75.5741	24.0939	-160.388	76.2353	-7.03891	-159.653	78.6507	-29.7726	-165.89	75.2132	-54.3613	-200.012	108.129	-23.7247	-188.459	104.65	-48.9254	-165.124	82.6621	-51.8564	-215.167	95.3709	-32.1515	-198.272	92.4715	-60.4423	-174.261	73.4005	-62.0953	-222.633	78.8445	-32.081	-206.911	77.4844	-57.6174	-185.733	68.4405	-59.7199	-228.287	59.8026	-28.6691	-218.646	65.241	-49.338	-195.563	61.0481	-61.4203	-221.366	65.5674	11.8676	-215.173	50.3587	36.1913	-205.793	78.1075	29.3628	
59	0.491667	-152.635	74.852	22.3219	-143.652	71.0168	-9.08051	-143.298	70.5007	-32.4611	-152.024	64.9683	-54.7696	-173.353	111.583	-33.7326	-159.094	100.958	-55.1478	-149.461	78.2248	-54.4332	-193.579	100.547	-41.3708	-178.844	93.351	-64.0266	-162.316	65.289	-60.6674	-204.176	85.7618	-40.122	-186.249	78.1109	-60.5878	-167.224	58.165	-57.7891	-213.474	67.1435	-30.0347	-200.408	65.4342	-55.2066	-181.942	57.9534	-58.0482	-210.453	71.2809	11.0071	-207.059	62.9652	33.4988	-186.156	88.8845	26.0559	
60	0.5	-140.473	74.0179	21.1848	-131.948	64.6966	-8.19089	-130.917	60.496	-36.2681	-140.974	54.0415	-53.0409	-157.371	103.869	-34.7691	-147.83	90.7177	-59.6312	-137.249	60.9993	-52.4027	-172.574	98.0816	-44.9056	-163.557	82.0567	-66.3417	-146.002	54.0715	-52.7959	-189.155	83.6401	-42.7705	-175.18	67.6053	-62.0485	-158.226	50.8872	-53.4426	-199.569	70.1989	-32.7505	-190.126	61.1662	-53.9814	-170.633	47.0383	-56.444	-195.043	81.6661	4.99325	-193.132	72.5332	33.7356	-174.77	89.3048	20.5655	
61	0.508333	-129.232	70.0874	19.3948	-120.514	53.7836	-7.0329	-120.921	45.3434	-30.0345	-132.001	36.0226	-52.0741	-145.522	91.7674	-40.05	-136.833	72.5096	-61.8866	-125.652	47.6402	-49.0701	-159.169	84.3832	-50.2093	-150.993	60.1855	-64.3536	-140.564	39.8891	-42.3125	-179.101	72.9369	-43.258	-163.72	54.1949	-58.9873	-152.993	33.5686	-42.8228	-192.149	63.4702	-35.2698	-178.321	49.4555	-51.1155	-160.816	35.6922	-43.6635	-184.216	81.3734	2.33385	-182.125	78.1211	29.2861	-156.995	93.1933	20.0394	
62	0.516667	-122.567	63.1135	22.172	-115.447	44.1001	-6.19694	-117.144	34.1874	-23.6201	-128.91	23.7406	-45.8307	-134.949	78.9797	-43.7556	-128.154	58.9198	-60.5085	-122.991	32.4543	-42.7385	-151.27	71.7672	-48.0456	-140.909	44.8774	-60.4544	-137.577	26.5332	-35.639	-169.644	61.5073	-43.8051	-156.07	41.7572	-55.0455	-146.018	22.3191	-33.9502	-183.343	55.2621	-31.5782	-172.082	37.3758	-46.0232	-154.528	20.6809	-35.3774	-174.045	78.3154	7.80932	-171.78	76.6235	30.9168	-149.396	86.59	17.5156	
63	0.525	-120.184	57.3523	23.9402	-110.671	38.0686	-0.697321	-112.617	27.7113	-20.9982	-123.647	15.952	-40.5679	-130.111	70.8588	-40.3826	-123.13	47.7616	-57.0917	-116.009	24.2288	-40.5248	-148.015	62.4983	-47.4244	-138.155	38.9991	-59.0645	-129.269	20.1165	-33.6007	-164.504	55.2009	-38.3108	-150.867	32.2945	-51.288	-142.475	14.3545	-33.389	-177.245	49.4132	-26.7156	-168.816	29.8828	-42.9726	-148.042	16.2639	-32.1924	-168.718	71.2159	8.05561	-173.835	70.8016	34.5083	-145.349	82.3996	17.3269	
64	0.533333	-121.308	55.5824	24.535	-108.21	34.4072	4.86734	-107.75	22.8534	-22.0961	-118.656	11.9588	-36.4235	-128.966	66.2482	-40.8554	-120.722	43.2202	-56.4867	-112.439	21.892	-44.9303	-144.53	61.4235	-45.515	-137.171	33.9247	-58.8516	-129.492	12.5808	-36.9248	-165.086	51.3737	-39.9937	-152.33	30.3101	-52.5056	-139.119	11.0436	-36.3399	-174.707	45.1629	-26.5907	-166.738	27.6067	-42.9768	-152.291	9.24329	-36.3821	-169.776	67.4526	8.80951	-170.177	67.0228	34.3723	-143.84	76.6627	19.4211	
65	0.541667	-120.381	55.4792	25.4841	-108.204	35.947	1.03795	-106.161	24.1975	-14.3547	-111.8	12.8174	-35.7433	-127.542	67.4967	-36.5213	-122.519	44.4064	-57.5325	-115.1	16.8012	-51.8114	-144.694	61.481	-45.7097	-141.556	36.1642	-62.674	-135.126	10.1412	-52.6647	-161.54	53.6613	-39.8113	-153.865	32.449	-55.6976	-144.291	9.86131	-48.6859	-176.225	45.2971	-29.1112	-173.214	28.5672	-43.8595	-153.171	13.4855	-45.6787	-169.141	67.0773	10.4921	-172.967	70.196	31.3888	-146.799	77.8758	19.8849	
66	0.55	-118.205	54.3077	26.695	-103.691	36.4536	7.2832	-101.455	24.9704	-14.2747	-102.177	12.2504	-34.1845	-125.591	64.733	-35.9886	-121.112	46.366	-59.1217	-115.193	18.8568	-62.6476	-147.578	59.5207	-46.2911	-141.218	43.7249	-65.9672	-136.726	9.88249	-67.4384	-165.011	53.134	-39.3545	-162.469	36.2838	-59.8199	-151.131	16.4186	-63.9835	-181.484	45.627	-23.9934	-177.347	32.5801	-43.7356	-169.161	13.0467	-53.1752	-168.033	68.2256	10.3303	-170.895	68.627	31.5115	-144.594	77.2564	20.0081	
67	0.558333	-117.89	49.1937	29.0425	-104.162	31.4134	11.552	-96.653	20.6878	-10.6161	-100.316	9.39097	-30.4611	-128.01	55.4777	-35.4414	-121.361	41.8187	-57.5068	-115.698	19.2507	-70.0399	-148.764	51.995	-42.996	-145.497	37.2531	-67.0658	-143.565	12.885	-79.2785	-166.664	47.508	-37.0162	-164.151	32.7325	-60.8115	-157.032	15.0966	-72.335	-184.276	38.0387	-26.5746	-183.757	25.8322	-44.5609	-174.941	10.0405	-58.2647	-169.552	62.7917	9.99249	-169.488	63.3644	31.3651	-144.206	69.5462	19.7117	
68	0.566667	-121.454	38.8262	34.1428	-105.327	22.4227	16.7334	-100.482	13.8232	-1.99497	-95.0247	1.24397	-22.3786	-127.137	41.5329	-35.1778	-122.7	27.9153	-58.9765	-121.34	10.1973	-71.8005	-150.911	40.2705	-41.4752	-149.978	28.4172	-63.0058	-145.627	9.46324	-82.2171	-167.473	36.3325	-33.1393	-168.377	24.6701	-56.9103	-168.108	11.0745	-72.6764	-189.295	27.787	-22.0202	-187.535	18.5023	-41.6776	-183.252	7.42854	-57.5905	-170.266	51.3087	7.65019	-175.054	56.6158	32.7851	-147.529	57.4559	19.6167	
69	0.575	-129.548	31.0633	37.6513	-111.492	15.4892	18.3364	-101.436	6.45211	0.812299	-94.2833	-4.91131	-14.4449	-126.407	28.5775	-31.9801	-125.145	14.5098	-54.4763	-123.251	-0.863243	-69.6612	-154.046	26.4867	-41.4955	-153.978	17.3087	-60.4082	-151.224	-0.0984839	-83.3204	-174.591	23.7137	-31.5993	-175.542	15.5406	-51.9386	-171.476	3.83373	-70.5562	-192.893	19.3063	-20.3233	-192.173	10.9158	-37.6492	-194.552	2.51727	-52.6941	-175.522	44.2497	12.219	-178.771	49.6717	37.1913	-150.268	49.2745	21.8357	
70	0.583333	-128.075	28.9013	38.3104	-116.802	13.7013	20.7252	-102.854	4.24181	2.75448	-93.7208	-4.67027	-13.3199	-128.519	23.5802	-31.1448	-124.34	13.2669	-48.7884	-124.7	-5.99143	-70.6274	-152.517	22.2653	-37.5192	-155.407	12.0669	-59.0532	-151.158	-1.78771	-80.9432	-176.839	19.7174	-29.762	-174.966	9.01065	-54.4166	-175.966	-2.20015	-73.8666	-195.762	14.6493	-19.4883	-199.426	6.72287	-32.7901	-196.998	-2.62507	-54.2878	-177.62	39.5199	9.53736	-175.039	46.9129	36.0577	-151.203	46.1493	22.3693	
71	0.591667	-128.22	30.7549	33.5166	-113.914	15.1041	22.6777	-105.225	6.3505	1.81043	-92.1049	-3.37462	-12.7899	-134.287	23.2798	-32.8466	-127.553	10.891	-53.3988	-124.933	-5.69234	-71.6237	-154.758	24.1197	-38.4618	-152.978	12.8961	-60.5048	-153.455	-2.93892	-85.0011	-174.66	19.1107	-33.5128	-176.641	11.3662	-50.6157	-177.356	-1.45226	-74.4279	-194.358	16.0204	-15.3576	-197.456	7.0211	-35.2638	-199.346	-0.0387005	-55.7	-176.836	39.5889	7.13462	-177.547	48.8449	32.6022	-148.33	48.0273	19.0674	
72	0.6	-128.447	33.8966	37.2491	-114.945	17.9374	20.3497	-102.109	9.33342	1.76345	-95.7706	0.300183	-15.1527	-134.047	27.4069	-34.1364	-130.268	16.0738	-53.8562	-124.3	0.417181	-70.1909	-157.657	25.4446	-42.0191	-157.877	13.2512	-64.0653	-157.022	-0.034405	-83.8352	-176.945	22.1019	-33.6629	-176.378	13.0641	-55.4159	-174.841	1.39365	-75.1812	-191.355	19.0987	-18.2836	-198.43	10.247	-35.2191	-203.722	2.73015	-54.3559	-179.27	44.142	8.77491	-177.526	53.0073	34.6389	-152.447	51.1467	19.9329	
73	0.608333	-131.041	38.1707	36.4887	-118.136	22.7339	15.9005	-104.986	12.4936	-3.17417	-94.4611	2.88658	-13.9743	-132.947	32.2973	-32.337	-126.785	20.2345	-54.6232	-126.782	1.91016	-72.8481	-155.019	29.8432	-40.3896	-157.213	19.0787	-61.1319	-157.311	1.58959	-85.8914	-175.111	27.0696	-32.4664	-175.307	14.8708	-56.5542	-176.363	2.59874	-75.336	-193.625	21.7411	-22.4583	-200.51	12.3727	-36.7649	-198.537	3.6769	-56.9834	-175.767	46.6481	6.23453	-182.037	54.0179	29.4109	-153.428	54.2578	17.3376	
